<?xml version="1.0" encoding="UTF-8"?>
<svg version="1.1" xmlns="http://www.w3.org/2000/svg" width="32" height="32">
<path d="M0 0 C4.8846525 2.26787438 7.73212562 5.1153475 10 10 C10.75381535 15.5997712 10.77303575 20.33499991 8.375 25.5 C3.80134327 30.3143755 0.6912538 32.25156236 -6 32.5 C-12.6912538 32.25156236 -15.80134327 30.3143755 -20.375 25.5 C-22.77303575 20.33499991 -22.75381535 15.5997712 -22 10 C-17.52212837 0.3553534 -9.85292056 -1.32635469 0 0 Z " fill="#88AADD" transform="translate(22,0)"/>
<path d="M0 0 C0.66 0.33 1.32 0.66 2 1 C1.80664062 1.56847656 1.61328125 2.13695312 1.4140625 2.72265625 C-0.18136423 7.45364938 -1.66900586 12.18794425 -3 17 C-3.33 17 -3.66 17 -4 17 C-4 15.02 -4 13.04 -4 11 C-4.7425 11.45375 -5.485 11.9075 -6.25 12.375 C-8.46930578 13.68640796 -10.67967822 14.88280803 -13 16 C-12.01 14.68 -11.02 13.36 -10 12 C-12.64 12 -15.28 12 -18 12 C-17.67 11.34 -17.34 10.68 -17 10 C-15.27844564 9.73604788 -13.54645194 9.53880113 -11.8125 9.375 C-7.15653884 8.64750607 -5.11150279 7.69671534 -2.3125 3.875 C-1.50918808 2.60327803 -0.726073 1.31734764 0 0 Z " fill="#CCDAF0" transform="translate(25,7)"/>
<path d="M0 0 C-2.475 3.465 -2.475 3.465 -5 7 C-6.65 6.67 -8.3 6.34 -10 6 C-10.33 4.68 -10.66 3.36 -11 2 C-7.36576791 -0.32590854 -4.22911669 -0.16265833 0 0 Z " fill="#9FBAE3" transform="translate(16,18)"/>
</svg>
